<?xml version="1.0" encoding="utf-8"?>
<!-- Generator: Adobe Illustrator 24.1.0, SVG Export Plug-In . SVG Version: 6.00 Build 0)  -->
<svg version="1.1" id="Layer_1" xmlns="http://www.w3.org/2000/svg" xmlns:xlink="http://www.w3.org/1999/xlink" x="0px" y="0px"
	 viewBox="0 0 93.452 87.88" style="enable-background:new 0 0 93.452 87.88;" xml:space="preserve">
<style type="text/css">
	.st0{fill:#FFFFFF;}
</style>
<g>
	<g>
		<g>
			<path class="st0" d="M57.24,51.24c0.65-1.42,0.97-2.94,0.96-4.47c-0.01-1.02-0.17-2.04-0.49-3.04l0,0
				c-0.03-0.08-0.05-0.16-0.08-0.24L57.6,43.4c-0.02-0.05-0.03-0.1-0.05-0.15c-0.01-0.02-0.02-0.04-0.03-0.07
				c-0.62-1.98-2.09-3.78-3.79-5.86c-2.09-2.55-4.45-5.43-5.68-9.32c-1.2-3.78-0.91-7.3-0.66-10.4c0.22-2.65,0.42-5.16-0.31-7.47
				v-0.01c0-0.02-0.01-0.04-0.01-0.06c-0.01-0.05-0.03-0.1-0.04-0.15L47,9.84c-0.02-0.08-0.05-0.16-0.07-0.25
				c-0.05-0.17-0.11-0.34-0.17-0.5c-0.01-0.02-0.02-0.05-0.03-0.07c-0.05-0.14-0.11-0.28-0.17-0.42c0-0.01,0-0.01-0.01-0.02
				c-0.95-2.2-2.62-4-4.77-5.12c-2.17-1.13-4.6-1.46-6.95-0.97l0,0c-0.15,0.03-0.31,0.07-0.46,0.11c-0.02,0.01-0.04,0.01-0.06,0.01
				c-0.17,0.04-0.34,0.09-0.51,0.15c-2.67,0.84-4.85,2.67-6.13,5.15c-0.16,0.31-0.31,0.63-0.43,0.95c-0.51,1.28-0.77,2.63-0.75,3.99
				c0.01,1.02,0.17,2.04,0.49,3.04c0,0,0,0,0,0.01c0.03,0.08,0.05,0.16,0.08,0.24l0.03,0.08c0.01,0.02,0.01,0.03,0.02,0.05
				c0.01,0.02,0.02,0.05,0.03,0.07s0.01,0.03,0.02,0.05l0.02,0.05c0.61,1.97,2.08,3.77,3.79,5.85c2.09,2.55,4.45,5.44,5.68,9.33
				c1.23,3.9,0.96,7.65,0.71,10.96c-0.2,2.67-0.37,4.97,0.25,6.91v0.01c0.01,0.02,0.01,0.04,0.02,0.06c0.01,0.05,0.03,0.1,0.04,0.15
				l0.02,0.08c0.02,0.08,0.05,0.16,0.07,0.25c0.04,0.14,0.09,0.28,0.14,0.41c1.53,4.22,5.54,6.9,9.85,6.9c1.04,0,2.1-0.16,3.15-0.49
				c2.67-0.84,4.85-2.67,6.13-5.15C57.1,51.56,57.17,51.4,57.24,51.24z"/>
			<path class="st0" d="M88.66,24.93c-1.78-2.8-4.55-4.73-7.78-5.45c-6.68-1.48-13.32,2.76-14.8,9.44c-0.02,0.1-0.04,0.2-0.06,0.3
				L66,29.32c-0.01,0.07-0.03,0.14-0.04,0.21v0.01c0,0.02,0,0.03-0.01,0.05v0.01c-0.54,2.39-0.09,5.11,0.42,8.26
				c0.63,3.88,1.35,8.27,0.3,13.02c-1.05,4.76-3.57,8.46-5.79,11.73c-1.79,2.63-3.33,4.9-3.84,7.26v0.01
				c-0.01,0.02-0.01,0.04-0.02,0.06C57,70,56.99,70.06,56.97,70.12l-0.03,0.1c-0.02,0.1-0.05,0.2-0.07,0.3
				c-0.72,3.24-0.13,6.56,1.65,9.35c1.78,2.8,4.55,4.73,7.78,5.45c0.9,0.2,1.81,0.3,2.71,0.3c2.34,0,4.63-0.66,6.65-1.95
				c0.7-0.45,1.34-0.95,1.93-1.51c1.76-1.68,2.98-3.84,3.52-6.27l0,0c0.02-0.1,0.04-0.2,0.06-0.29l0.02-0.1
				c0.01-0.07,0.03-0.14,0.04-0.21v-0.01c0-0.02,0.01-0.04,0.01-0.05l0,0c0.54-2.4,0.09-5.12-0.42-8.28c-0.63-3.87-1.35-8.26-0.3-13
				c1.02-4.62,3.41-8.08,5.52-11.12c1.8-2.6,3.5-5.06,4.12-7.86c0-0.01,0-0.01,0.01-0.02c0.01-0.02,0.01-0.04,0.02-0.06
				c0.02-0.06,0.03-0.12,0.05-0.18l0.03-0.1c0.02-0.1,0.05-0.2,0.07-0.3C91.03,31.04,90.45,27.72,88.66,24.93z"/>
			<path class="st0" d="M18.82,29.34c-2.65-1.38-5.67-1.64-8.51-0.74s-5.17,2.85-6.54,5.5c-1.38,2.65-1.64,5.67-0.74,8.51
				c0.9,2.84,2.85,5.17,5.5,6.54c1.61,0.84,3.37,1.26,5.14,1.26c1.13,0,2.27-0.17,3.37-0.52c2.84-0.9,5.17-2.85,6.54-5.5
				c1.38-2.65,1.64-5.67,0.74-8.51C23.42,33.04,21.47,30.71,18.82,29.34z"/>
		</g>
	</g>
</g>
</svg>
